<?xml version="1.0" encoding="utf-8"?>
<!-- Generator: Adobe Illustrator 16.0.0, SVG Export Plug-In . SVG Version: 6.00 Build 0)  -->
<!DOCTYPE svg PUBLIC "-//W3C//DTD SVG 1.1//EN" "http://www.w3.org/Graphics/SVG/1.1/DTD/svg11.dtd">
<svg version="1.1" id="Layer_1" xmlns="http://www.w3.org/2000/svg" xmlns:xlink="http://www.w3.org/1999/xlink" x="0px" y="0px"
	 width="161px" height="161px" viewBox="0 0 161 161" enable-background="new 0 0 161 161" xml:space="preserve">
<path fill="#FDF634" d="M160.611,147.652c0,7.145-5.791,12.935-12.934,12.935H12.959c-7.143,0-12.934-5.79-12.934-12.935V12.933
	C0.025,5.791,5.816,0,12.959,0H147.68c7.143,0,12.932,5.791,12.932,12.933V147.652L160.611,147.652z"/>
<path fill="#00A0A1" d="M154,143.104c0,6.57-5.326,11.896-11.896,11.896H17.896C11.326,155,6,149.674,6,143.104V18.896
	C6,12.326,11.326,7,17.896,7h124.208C148.674,7,154,12.326,154,18.896V143.104z"/>
<path fill="#FDF634" d="M100.43,81.674h-13.65v49.436H66.33V81.674H56.105V64.631h10.224V54.406
	c0-13.899,5.768-22.169,22.163-22.169h13.646v17.04h-8.527c-6.383,0-6.809,2.383-6.809,6.827l-0.023,8.526h15.461L100.43,81.674z"/>
</svg>
