<?xml version="1.0" encoding="utf-8"?>
<!-- Generator: Adobe Illustrator 16.0.0, SVG Export Plug-In . SVG Version: 6.00 Build 0)  -->
<!DOCTYPE svg PUBLIC "-//W3C//DTD SVG 1.1//EN" "http://www.w3.org/Graphics/SVG/1.1/DTD/svg11.dtd">
<svg version="1.1" id="Layer_1" xmlns="http://www.w3.org/2000/svg" xmlns:xlink="http://www.w3.org/1999/xlink" x="0px" y="0px"
	 width="161px" height="161px" viewBox="0 0 161 161" enable-background="new 0 0 161 161" xml:space="preserve">
<path fill="#F8ED40" d="M160.319,147.359c0,7.143-5.792,12.934-12.935,12.934H12.665c-7.143,0-12.933-5.791-12.933-12.934V12.641
	c0-7.143,5.79-12.935,12.933-12.935h134.72c7.143,0,12.935,5.792,12.935,12.935V147.359z"/>
<path fill="#00A0A1" d="M154.025,142.936c0,6.569-5.386,12.064-11.957,12.064H17.982c-6.57,0-11.957-5.495-11.957-12.064V18.847
	C6.025,12.276,11.412,7,17.982,7h124.086c6.571,0,11.957,5.276,11.957,11.847V142.936z"/>
<g>
	<g>
		<g>
			<path fill="#F8ED40" d="M80.941,51.75c6.359,0,12.267,1.936,17.165,5.25H132V43c0-6.627-5.348-12-11.975-12h-79
				C34.398,31,29,36.373,29,43v14h34.778C68.676,53.686,74.583,51.75,80.941,51.75z M124,44.125c0,2.692-2.183,4.875-4.875,4.875
				h-13.25c-2.692,0-4.875-2.183-4.875-4.875v-0.25c0-2.692,2.183-4.875,4.875-4.875h13.25c2.692,0,4.875,2.183,4.875,4.875V44.125z
				"/>
			<path fill="#F8ED40" d="M111.609,82.417c0,16.938-13.73,30.667-30.668,30.667c-16.936,0-30.666-13.729-30.666-30.667
				c0-3.657,0.643-7.165,1.817-10.417H29v50c0,6.627,5.398,12,12.025,12h79c6.627,0,11.975-5.373,11.975-12V72h-22.208
				C110.967,75.252,111.609,78.76,111.609,82.417z"/>
		</g>
	</g>
	<circle fill="#F8ED40" cx="80.359" cy="82.333" r="22.166"/>
</g>
</svg>
