<?xml version="1.0" encoding="utf-8"?>
<!-- Generator: Adobe Illustrator 16.0.0, SVG Export Plug-In . SVG Version: 6.00 Build 0)  -->
<!DOCTYPE svg PUBLIC "-//W3C//DTD SVG 1.1//EN" "http://www.w3.org/Graphics/SVG/1.1/DTD/svg11.dtd">
<svg version="1.1" id="Layer_1" xmlns="http://www.w3.org/2000/svg" xmlns:xlink="http://www.w3.org/1999/xlink" x="0px" y="0px"
	 width="574.28px" height="120.935px" viewBox="0 0 574.28 120.935" enable-background="new 0 0 574.28 120.935"
	 xml:space="preserve">
<polygon fill-rule="evenodd" clip-rule="evenodd" fill="#F8ED40" points="573.28,120.935 0,120.935 41.372,60.467 0,0 573.28,0 "/>
<g>
	<polygon fill="#DBB94B" points="19.752,110.672 573.28,110.672 573.28,112.263 18.663,112.263 	"/>
	<polygon fill="#DBB94B" points="573.28,106.039 22.922,106.039 25.658,102.038 573.28,102.038 	"/>
	<polygon fill="#DBB94B" points="573.28,97.405 28.829,97.405 31.565,93.405 573.28,93.405 	"/>
	<polygon fill="#DBB94B" points="573.28,88.772 34.735,88.772 37.473,84.771 573.28,84.771 	"/>
	<polygon fill="#DBB94B" points="573.28,80.139 40.643,80.139 43.38,76.139 573.28,76.139 	"/>
	<polygon fill="#DBB94B" points="573.28,71.506 46.55,71.506 49.286,67.506 573.28,67.506 	"/>
	<polygon fill="#DBB94B" points="573.28,62.873 52.456,62.873 54.103,60.467 53.011,58.872 573.28,58.872 	"/>
	<polygon fill="#DBB94B" points="573.28,54.239 49.842,54.239 47.104,50.239 573.28,50.239 	"/>
	<polygon fill="#DBB94B" points="573.28,45.606 43.935,45.606 41.197,41.606 573.28,41.606 	"/>
	<polygon fill="#DBB94B" points="573.28,36.973 38.027,36.973 35.29,32.973 573.28,32.973 	"/>
	<polygon fill="#DBB94B" points="573.28,28.34 32.12,28.34 29.384,24.34 573.28,24.34 	"/>
	<polygon fill="#DBB94B" points="573.28,19.707 26.214,19.707 23.477,15.706 573.28,15.706 	"/>
	<polygon fill="#DBB94B" points="573.28,11.073 20.307,11.073 18.663,8.671 573.28,8.671 	"/>
</g>
<g>
	<polygon fill-rule="evenodd" clip-rule="evenodd" fill="#00A0A1" points="115.205,67.129 51.912,67.129 55.103,62.467 
		51.912,57.805 115.205,57.805 	"/>
	<rect x="338.526" y="54.538" fill-rule="evenodd" clip-rule="evenodd" fill="#00A0A1" width="235.754" height="9.324"/>
</g>
<g>
	<path fill="#00A0A1" d="M172.081,81.139V59.681h-18.649v21.458h-10.009V33.327h10.009v18.001h18.649V33.327h10.081v47.812H172.081z
		"/>
	<path fill="#00A0A1" d="M184.75,63.425c0-11.232,6.984-18.649,18.218-18.649c11.089,0,18.001,7.345,18.001,18.649
		c0,11.233-6.985,18.65-18.001,18.65C191.518,82.075,184.75,74.442,184.75,63.425z M211.536,63.425c0-7.2-2.88-10.729-8.568-10.729
		s-8.569,3.528-8.569,10.729c0,7.201,2.88,10.801,8.569,10.801S211.536,70.626,211.536,63.425z"/>
	<path fill="#00A0A1" d="M265.537,81.139V59.681c0-4.248-2.231-7.272-5.544-7.272c-3.456,0-5.977,3.24-5.977,7.561v21.17h-9.361
		V59.825c0-5.688-1.512-7.128-5.617-7.128c-3.744,0-5.688,2.304-5.688,6.913v21.53h-9.361V45.711h8.785v5.185
		c2.376-4.68,5.688-6.121,10.369-6.121c4.824,0,7.128,1.512,9.865,5.617c1.944-3.888,5.113-5.617,9.577-5.617
		c7.129,0,12.098,5.185,12.098,11.809v24.554H265.537z"/>
	<path fill="#00A0A1" d="M286.99,65.874c0.288,5.328,3.313,8.784,7.92,8.784c3.025,0,5.689-1.513,6.338-3.96h9.648
		c-2.16,7.271-7.992,11.377-15.553,11.377c-11.81,0-17.714-6.48-17.714-19.299c0-10.944,6.265-18.001,17.138-18.001
		c10.873,0,16.633,7.057,16.633,21.099H286.99z M301.752,59.969c-0.145-5.256-3.602-7.776-7.273-7.776
		c-3.744,0-6.84,2.88-7.201,7.776H301.752z"/>
</g>
</svg>
