<?xml version="1.0" encoding="utf-8"?>
<!-- Generator: Adobe Illustrator 16.0.0, SVG Export Plug-In . SVG Version: 6.00 Build 0)  -->
<!DOCTYPE svg PUBLIC "-//W3C//DTD SVG 1.1//EN" "http://www.w3.org/Graphics/SVG/1.1/DTD/svg11.dtd">
<svg version="1.1" id="Layer_1" xmlns="http://www.w3.org/2000/svg" xmlns:xlink="http://www.w3.org/1999/xlink" x="0px" y="0px"
	 width="574.28px" height="120.935px" viewBox="0 0 574.28 120.935" enable-background="new 0 0 574.28 120.935"
	 xml:space="preserve">
<polygon fill-rule="evenodd" clip-rule="evenodd" fill="#F8ED40" points="573.28,120.935 0,120.935 41.372,60.467 0,0 573.28,0 "/>
<g>
	<polygon fill="#DBB94B" points="19.752,110.672 573.28,110.672 573.28,112.263 18.663,112.263 	"/>
	<polygon fill="#DBB94B" points="573.28,106.039 22.922,106.039 25.658,102.038 573.28,102.038 	"/>
	<polygon fill="#DBB94B" points="573.28,97.405 28.829,97.405 31.565,93.405 573.28,93.405 	"/>
	<polygon fill="#DBB94B" points="573.28,88.772 34.735,88.772 37.473,84.771 573.28,84.771 	"/>
	<polygon fill="#DBB94B" points="573.28,80.139 40.643,80.139 43.38,76.139 573.28,76.139 	"/>
	<polygon fill="#DBB94B" points="573.28,71.506 46.55,71.506 49.286,67.506 573.28,67.506 	"/>
	<polygon fill="#DBB94B" points="573.28,62.873 52.456,62.873 54.103,60.467 53.011,58.872 573.28,58.872 	"/>
	<polygon fill="#DBB94B" points="573.28,54.239 49.842,54.239 47.104,50.239 573.28,50.239 	"/>
	<polygon fill="#DBB94B" points="573.28,45.606 43.935,45.606 41.197,41.606 573.28,41.606 	"/>
	<polygon fill="#DBB94B" points="573.28,36.973 38.027,36.973 35.29,32.973 573.28,32.973 	"/>
	<polygon fill="#DBB94B" points="573.28,28.34 32.12,28.34 29.384,24.34 573.28,24.34 	"/>
	<polygon fill="#DBB94B" points="573.28,19.707 26.214,19.707 23.477,15.706 573.28,15.706 	"/>
	<polygon fill="#DBB94B" points="573.28,11.073 20.307,11.073 18.663,8.671 573.28,8.671 	"/>
</g>
<g>
	<polygon fill-rule="evenodd" clip-rule="evenodd" fill="#00A0A1" points="114.205,67.129 50.912,67.129 54.103,62.467 
		50.912,57.805 114.205,57.805 	"/>
	<rect x="337.526" y="54.538" fill-rule="evenodd" clip-rule="evenodd" fill="#00A0A1" width="235.754" height="9.324"/>
</g>
<g>
	<path fill="#00A0A1" d="M154.756,83.139V35.327h18.505c12.961,0,22.178,8.856,22.178,23.402c0,14.546-8.281,24.41-20.666,24.41
		H154.756z M172.758,75.002c8.713,0,12.457-5.473,12.457-16.273s-3.744-15.121-13.321-15.121h-7.417v31.395H172.758z"/>
	<path fill="#00A0A1" d="M220.494,83.139c-0.288-0.864-0.504-2.089-0.576-3.169c-2.232,2.449-5.977,4.105-10.729,4.105
		c-8.065,0-11.809-3.961-11.809-9.721c0-10.226,6.841-11.377,16.273-12.674c4.68-0.648,5.977-1.584,5.977-4.032
		c0-2.304-2.304-3.672-5.977-3.672c-4.249,0-5.977,2.088-6.409,5.256h-8.712c0.144-7.344,4.176-12.457,15.553-12.457
		c11.233,0,15.121,5.041,15.121,13.969v22.394H220.494z M219.845,65.785c-0.936,0.937-2.592,1.44-6.048,2.089
		c-5.329,1.008-7.057,2.52-7.057,5.544c0,2.664,1.584,3.96,4.537,3.96c4.824,0,8.424-3.527,8.497-7.705L219.845,65.785z"/>
	<path fill="#00A0A1" d="M254.26,58.44c-0.432-3.24-2.304-4.68-6.336-4.68c-3.816,0-5.833,0.792-5.833,3.024
		c0,1.944,2.016,2.953,5.76,3.96c12.385,3.384,16.417,4.032,16.417,12.313c0,6.337-5.4,11.018-15.697,11.018
		c-10.153,0-16.706-4.824-16.85-12.313h9.649c0,3.312,2.952,5.257,7.128,5.257c3.528,0,6.481-1.08,6.481-3.385
		c0-2.592-1.873-3.456-5.688-4.32c-13.753-3.024-16.273-6.553-16.273-12.529c0-5.328,4.104-10.009,15.193-10.009
		c10.153,0,14.617,4.393,15.049,11.665H254.26z"/>
	<path fill="#00A0A1" d="M289.252,83.139V61.177c0-5.329-1.8-6.984-6.048-6.984c-4.681,0-7.272,3.888-7.272,8.641v20.306h-9.361
		V34.75h9.361V52.32c1.368-3.168,5.688-5.544,10.44-5.544c7.272,0,12.313,4.249,12.313,11.305v25.058H289.252z"/>
</g>
</svg>
