<?xml version="1.0" encoding="utf-8"?>
<!-- Generator: Adobe Illustrator 16.0.0, SVG Export Plug-In . SVG Version: 6.00 Build 0)  -->
<!DOCTYPE svg PUBLIC "-//W3C//DTD SVG 1.1//EN" "http://www.w3.org/Graphics/SVG/1.1/DTD/svg11.dtd">
<svg version="1.1" id="Layer_1" xmlns="http://www.w3.org/2000/svg" xmlns:xlink="http://www.w3.org/1999/xlink" x="0px" y="0px"
	 width="574.28px" height="120.935px" viewBox="0 0 574.28 120.935" enable-background="new 0 0 574.28 120.935"
	 xml:space="preserve">
<polygon fill-rule="evenodd" clip-rule="evenodd" fill="#F8ED40" points="573.28,120.935 0,120.935 41.372,60.467 0,0 573.28,0 "/>
<g>
	<polygon fill="#DBB94B" points="19.752,110.672 573.28,110.672 573.28,112.263 18.663,112.263 	"/>
	<polygon fill="#DBB94B" points="573.28,106.039 22.922,106.039 25.658,102.038 573.28,102.038 	"/>
	<polygon fill="#DBB94B" points="573.28,97.405 28.829,97.405 31.565,93.405 573.28,93.405 	"/>
	<polygon fill="#DBB94B" points="573.28,88.772 34.735,88.772 37.473,84.771 573.28,84.771 	"/>
	<polygon fill="#DBB94B" points="573.28,80.139 40.643,80.139 43.38,76.139 573.28,76.139 	"/>
	<polygon fill="#DBB94B" points="573.28,71.506 46.55,71.506 49.286,67.506 573.28,67.506 	"/>
	<polygon fill="#DBB94B" points="573.28,62.873 52.456,62.873 54.103,60.467 53.011,58.872 573.28,58.872 	"/>
	<polygon fill="#DBB94B" points="573.28,54.239 49.842,54.239 47.104,50.239 573.28,50.239 	"/>
	<polygon fill="#DBB94B" points="573.28,45.606 43.935,45.606 41.197,41.606 573.28,41.606 	"/>
	<polygon fill="#DBB94B" points="573.28,36.973 38.027,36.973 35.29,32.973 573.28,32.973 	"/>
	<polygon fill="#DBB94B" points="573.28,28.34 32.12,28.34 29.384,24.34 573.28,24.34 	"/>
	<polygon fill="#DBB94B" points="573.28,19.707 26.214,19.707 23.477,15.706 573.28,15.706 	"/>
	<polygon fill="#DBB94B" points="573.28,11.073 20.307,11.073 18.663,8.671 573.28,8.671 	"/>
</g>
<g>
	<polygon fill-rule="evenodd" clip-rule="evenodd" fill="#00A0A1" points="115.205,67.129 51.912,67.129 55.103,62.467 
		51.912,57.805 115.205,57.805 	"/>
	<rect x="338.526" y="54.538" fill-rule="evenodd" clip-rule="evenodd" fill="#00A0A1" width="235.754" height="9.324"/>
</g>
<g>
	<path fill="#00A0A1" d="M166.618,81.139l-3.024-9.864h-17.642l-3.384,9.864h-10.585l17.066-47.812h11.593l16.85,47.812H166.618z
		 M154.737,44.056h-0.072l-6.121,19.01h12.169L154.737,44.056z"/>
	<path fill="#00A0A1" d="M179.574,81.139V32.75h9.217V50.32c2.665-3.744,6.121-5.544,10.513-5.544
		c9.145,0,14.545,7.561,14.545,18.29c0,11.953-6.408,19.01-15.337,19.01c-4.32,0-7.632-1.656-9.865-5.257l-0.072,4.32H179.574z
		 M204.344,63.714c0-7.273-2.592-10.946-8.064-10.946c-5.185,0-7.849,3.816-7.849,11.521c0,5.977,3.456,10.153,7.92,10.153
		C201.032,74.442,204.344,70.05,204.344,63.714z"/>
	<path fill="#00A0A1" d="M216.149,63.425c0-11.232,6.985-18.649,18.218-18.649c11.088,0,18.001,7.345,18.001,18.649
		c0,11.233-6.984,18.65-18.001,18.65C222.918,82.075,216.149,74.442,216.149,63.425z M242.936,63.425
		c0-7.2-2.88-10.729-8.568-10.729s-8.569,3.528-8.569,10.729c0,7.201,2.88,10.801,8.569,10.801S242.936,70.626,242.936,63.425z"/>
	<path fill="#00A0A1" d="M278.431,81.139v-4.968c-2.448,4.031-6.12,5.904-11.017,5.904c-7.057,0-12.025-5.257-12.025-13.033V45.711
		h9.361v21.89c0,4.464,2.016,6.624,5.977,6.624c4.752,0,7.272-3.384,7.272-8.064v-20.45h9.288v35.427H278.431z"/>
	<path fill="#00A0A1" d="M311.119,57.809h8.713V67.89c0,7.488-4.32,14.186-14.33,14.186c-10.369,0-14.473-6.625-14.473-14.258
		V36.135h9.217v9.577h19.586v6.625h-19.586v14.546c0,4.464,1.584,7.057,5.4,7.057c3.744,0,5.473-2.521,5.473-6.913V57.809z"/>
</g>
</svg>
