<?xml version="1.0" encoding="utf-8"?>
<!-- Generator: Adobe Illustrator 16.0.0, SVG Export Plug-In . SVG Version: 6.00 Build 0)  -->
<!DOCTYPE svg PUBLIC "-//W3C//DTD SVG 1.1//EN" "http://www.w3.org/Graphics/SVG/1.1/DTD/svg11.dtd">
<svg version="1.1" id="Layer_1" xmlns="http://www.w3.org/2000/svg" xmlns:xlink="http://www.w3.org/1999/xlink" x="0px" y="0px"
	 width="574.28px" height="120.935px" viewBox="0 0 574.28 120.935" enable-background="new 0 0 574.28 120.935"
	 xml:space="preserve">
<polygon fill-rule="evenodd" clip-rule="evenodd" fill="#F8ED40" points="573.28,120.935 0,120.935 41.372,60.467 0,0 573.28,0 "/>
<g>
	<polygon fill="#DBB94B" points="19.752,110.672 573.28,110.672 573.28,112.263 18.663,112.263 	"/>
	<polygon fill="#DBB94B" points="573.28,106.039 22.922,106.039 25.658,102.038 573.28,102.038 	"/>
	<polygon fill="#DBB94B" points="573.28,97.405 28.829,97.405 31.565,93.405 573.28,93.405 	"/>
	<polygon fill="#DBB94B" points="573.28,88.772 34.735,88.772 37.473,84.771 573.28,84.771 	"/>
	<polygon fill="#DBB94B" points="573.28,80.139 40.643,80.139 43.38,76.139 573.28,76.139 	"/>
	<polygon fill="#DBB94B" points="573.28,71.506 46.55,71.506 49.286,67.506 573.28,67.506 	"/>
	<polygon fill="#DBB94B" points="573.28,62.873 52.456,62.873 54.103,60.467 53.011,58.872 573.28,58.872 	"/>
	<polygon fill="#DBB94B" points="573.28,54.239 49.842,54.239 47.104,50.239 573.28,50.239 	"/>
	<polygon fill="#DBB94B" points="573.28,45.606 43.935,45.606 41.197,41.606 573.28,41.606 	"/>
	<polygon fill="#DBB94B" points="573.28,36.973 38.027,36.973 35.29,32.973 573.28,32.973 	"/>
	<polygon fill="#DBB94B" points="573.28,28.34 32.12,28.34 29.384,24.34 573.28,24.34 	"/>
	<polygon fill="#DBB94B" points="573.28,19.707 26.214,19.707 23.477,15.706 573.28,15.706 	"/>
	<polygon fill="#DBB94B" points="573.28,11.073 20.307,11.073 18.663,8.671 573.28,8.671 	"/>
</g>
<g>
	<polygon fill-rule="evenodd" clip-rule="evenodd" fill="#00A0A1" points="114.205,67.129 50.912,67.129 54.103,62.467 
		50.912,57.805 114.205,57.805 	"/>
	<rect x="337.526" y="54.538" fill-rule="evenodd" clip-rule="evenodd" fill="#00A0A1" width="235.754" height="9.324"/>
</g>
<g>
	<path fill="#00A0A1" d="M154.546,73.722c-2.016,10.873-9.505,18.073-20.594,18.073c-12.529,0-22.106-8.569-22.106-24.986
		c0-16.201,8.569-26.066,22.25-26.066c11.953,0,19.514,7.633,20.45,17.282h-10.009c-1.368-5.4-5.617-8.641-10.369-8.641
		c-8.281,0-12.169,6.408-12.169,16.849c0,10.585,3.888,16.85,11.665,16.85c5.904,0,9.505-3.384,10.873-9.36H154.546z"/>
	<path fill="#00A0A1" d="M155.622,72.425c0-11.232,6.984-18.649,18.218-18.649c11.089,0,18.001,7.345,18.001,18.649
		c0,11.233-6.985,18.65-18.001,18.65C162.39,91.075,155.622,83.442,155.622,72.425z M182.408,72.425c0-7.2-2.88-10.729-8.568-10.729
		s-8.569,3.528-8.569,10.729c0,7.201,2.88,10.801,8.569,10.801S182.408,79.626,182.408,72.425z"/>
	<path fill="#00A0A1" d="M217.543,90.139V68.681c0-5.473-1.584-6.984-6.049-6.984c-4.896,0-7.272,2.736-7.272,8.137v20.306h-9.361
		V54.711h8.929v5.185c2.16-3.96,5.761-6.121,11.449-6.121c6.769,0,11.737,4.104,11.737,11.81v24.554H217.543z"/>
	<path fill="#00A0A1" d="M250.806,66.809h8.713V76.89c0,7.488-4.32,14.186-14.329,14.186c-10.369,0-14.474-6.625-14.474-14.258
		V45.135h9.217v9.577h19.586v6.625h-19.586v14.546c0,4.464,1.584,7.057,5.4,7.057c3.744,0,5.473-2.521,5.473-6.913V66.809z"/>
	<path fill="#00A0A1" d="M285.078,90.139c-0.288-0.864-0.504-2.089-0.576-3.169c-2.231,2.449-5.977,4.105-10.729,4.105
		c-8.064,0-11.809-3.961-11.809-9.721c0-10.226,6.84-11.377,16.273-12.674c4.68-0.648,5.976-1.584,5.976-4.032
		c0-2.304-2.304-3.673-5.976-3.673c-4.249,0-5.977,2.089-6.409,5.257h-8.713c0.145-7.344,4.177-12.457,15.554-12.457
		c11.233,0,15.122,5.041,15.122,13.97v22.394H285.078z M284.43,72.785c-0.937,0.937-2.593,1.44-6.049,2.089
		c-5.328,1.008-7.057,2.52-7.057,5.544c0,2.664,1.584,3.96,4.536,3.96c4.824,0,8.425-3.527,8.497-7.705L284.43,72.785z"/>
	<path fill="#00A0A1" d="M329.43,77.321c-1.008,8.209-7.705,13.754-16.273,13.754c-9.648,0-16.273-6.409-16.273-19.082
		c0-12.673,6.625-18.218,16.561-18.218c9.217,0,15.482,5.257,16.059,13.609h-9.434c-0.504-3.673-3.168-5.833-6.695-5.833
		c-3.961,0-7.201,2.521-7.201,10.225c0,7.705,3.24,11.449,6.912,11.449s6.553-2.088,6.912-5.904H329.43z"/>
	<path fill="#00A0A1" d="M351.893,66.809h8.713V76.89c0,7.488-4.32,14.186-14.328,14.186c-10.369,0-14.475-6.625-14.475-14.258
		V45.135h9.217v9.577h19.586v6.625H341.02v14.546c0,4.464,1.584,7.057,5.4,7.057c3.744,0,5.473-2.521,5.473-6.913V66.809z"/>
</g>
</svg>
