<?xml version="1.0" encoding="utf-8"?>
<!-- Generator: Adobe Illustrator 16.0.0, SVG Export Plug-In . SVG Version: 6.00 Build 0)  -->
<!DOCTYPE svg PUBLIC "-//W3C//DTD SVG 1.1//EN" "http://www.w3.org/Graphics/SVG/1.1/DTD/svg11.dtd">
<svg version="1.1" id="Layer_1" xmlns="http://www.w3.org/2000/svg" xmlns:xlink="http://www.w3.org/1999/xlink" x="0px" y="0px"
	 width="522.726px" height="364.753px" viewBox="0 0 522.726 364.753" enable-background="new 0 0 522.726 364.753"
	 xml:space="preserve">
<g>
	<path fill="#FDFB48" d="M25.779,177.916v-65.757H1.78V98.239h64.797v13.919H42.458v65.757H25.779z"/>
	<path fill="#FDFB48" d="M55.06,148.397c0-18.72,11.64-31.079,30.359-31.079c18.479,0,29.999,12.24,29.999,31.079
		c0,18.719-11.639,31.079-29.999,31.079C66.339,179.476,55.06,166.756,55.06,148.397z M99.698,148.397
		c0-12-4.8-17.879-14.279-17.879s-14.279,5.879-14.279,17.879c0,11.999,4.8,17.999,14.279,17.999S99.698,160.396,99.698,148.397z"/>
	<path fill="#FDFB48" d="M161.377,177.916l-0.12-7.2c-3.72,6-9.24,8.76-16.439,8.76c-14.879,0-25.559-11.76-25.559-31.679
		c0-17.879,9-30.479,24.239-30.479c7.32,0,13.08,3,17.52,9.24V97.279h15.359v80.637H161.377z M161.618,149.836
		c0-12.839-4.44-19.199-13.08-19.199c-9.12,0-13.439,6.12-13.439,18.239c0,10.56,5.52,17.879,13.319,17.879
		C155.858,166.756,161.618,159.796,161.618,149.836z"/>
	<path fill="#FDFB48" d="M219.576,177.916c-0.479-1.44-0.84-3.48-0.96-5.28c-3.72,4.08-9.959,6.84-17.879,6.84
		c-13.439,0-19.679-6.6-19.679-16.2c0-17.039,11.399-18.959,27.119-21.119c7.8-1.08,9.96-2.64,9.96-6.72c0-3.84-3.84-6.12-9.96-6.12
		c-7.08,0-9.959,3.48-10.68,8.76h-14.519c0.24-12.24,6.959-20.759,25.919-20.759c18.719,0,25.199,8.4,25.199,23.279v37.318H219.576z
		 M218.497,148.997c-1.56,1.56-4.32,2.4-10.08,3.48c-8.88,1.68-11.76,4.2-11.76,9.24c0,4.439,2.64,6.6,7.56,6.6
		c8.04,0,14.04-5.88,14.16-12.839L218.497,148.997z"/>
	<path fill="#FDFB48" d="M277.896,170.116c-2.16,5.28-8.641,8.4-15.961,8.4c-12.359,0-21.598-8.4-21.598-21.359v-38.278h15.6v35.999
		c0,7.32,3.359,11.04,9.959,11.04c7.08,0,12-4.68,12-11.04v-35.999h15.598v60.598c0,16.679-11.998,26.399-27.117,26.399
		c-17.279,0-26.04-9.479-26.04-24.719h14.52c0,6.96,4.078,11.28,12.238,11.28c5.641,0,10.801-4.92,10.801-12.72V170.116z"/>
	<path fill="#FDFB48" d="M378.093,177.916l-9.359-34.318l-9.359,34.318h-15.961l-16.799-59.038h16.439l9.6,37.918l8.16-37.918h15.84
		l9.238,37.918l9-37.918h16.08l-16.92,59.038H378.093z"/>
	<path fill="#FDFB48" d="M446.855,177.916c-0.48-1.44-0.84-3.48-0.961-5.28c-3.719,4.08-9.959,6.84-17.879,6.84
		c-13.439,0-19.68-6.6-19.68-16.2c0-17.039,11.4-18.959,27.119-21.119c7.801-1.08,9.961-2.64,9.961-6.72
		c0-3.84-3.84-6.12-9.961-6.12c-7.078,0-9.959,3.48-10.68,8.76h-14.52c0.24-12.24,6.961-20.759,25.92-20.759
		c18.719,0,25.199,8.4,25.199,23.279v37.318H446.855z M445.775,148.997c-1.561,1.56-4.32,2.4-10.08,3.48
		c-8.879,1.68-11.76,4.2-11.76,9.24c0,4.439,2.641,6.6,7.561,6.6c8.039,0,14.039-5.88,14.16-12.839L445.775,148.997z"/>
	<path fill="#FDFB48" d="M503.132,136.757c-0.719-5.4-3.84-7.8-10.559-7.8c-6.361,0-9.721,1.32-9.721,5.04
		c0,3.24,3.359,4.919,9.6,6.6c20.639,5.64,27.359,6.72,27.359,20.519c0,10.56-9,18.359-26.158,18.359
		c-16.92,0-27.84-8.04-28.08-20.519h16.08c0,5.52,4.92,8.759,11.879,8.759c5.881,0,10.801-1.8,10.801-5.64
		c0-4.32-3.121-5.76-9.48-7.2c-22.92-5.04-27.119-10.919-27.119-20.879c0-8.88,6.84-16.68,25.318-16.68
		c16.92,0,24.359,7.32,25.08,19.439H503.132z"/>
	<path fill="#FDFB48" d="M92.465,317.916L91.937,306.3c-5.632,9.856-19.007,15.664-35.023,15.664
		c-32.383,0-52.974-30.095-52.974-62.654c0-34.495,19.711-62.126,57.55-62.126c27.807,0,49.278,16.543,51.038,39.951H87.889
		c-1.232-10.912-13.023-19.711-26.399-19.711c-19.536,0-32.559,15.136-32.559,42.943c0,19.184,9.68,41.007,32.383,41.007
		c16.016,0,28.511-12.144,28.511-26.751H63.954v-19.535h48.75v62.83H92.465z"/>
	<path fill="#FDFB48" d="M121.859,317.916v-86.589h21.472v10.384c7.568-11.616,16.367-12.672,25.695-12.672h2.992v23.407
		c-2.112-0.352-4.224-0.528-6.336-0.528c-14.08,0-20.943,7.04-20.943,20.943v45.055H121.859z"/>
	<path fill="#FDFB48" d="M193.667,280.604c0.704,13.024,8.096,21.472,19.36,21.472c7.392,0,13.903-3.696,15.487-9.68h23.583
		c-5.279,17.775-19.536,27.807-38.015,27.807c-28.863,0-43.294-15.84-43.294-47.167c0-26.751,15.312-43.999,41.887-43.999
		s40.655,17.248,40.655,51.566H193.667z M229.746,266.173c-0.352-12.848-8.8-19.007-17.775-19.007c-9.152,0-16.72,7.04-17.6,19.007
		H229.746z"/>
	<path fill="#FDFB48" d="M314.576,317.916c-0.705-2.112-1.232-5.104-1.408-7.744c-5.455,5.984-14.607,10.032-26.223,10.032
		c-19.713,0-28.863-9.68-28.863-23.759c0-24.992,16.719-27.807,39.773-30.975c11.441-1.584,14.607-3.872,14.607-9.856
		c0-5.632-5.631-8.976-14.607-8.976c-10.383,0-14.607,5.104-15.662,12.848h-21.297c0.354-17.952,10.209-30.447,38.016-30.447
		c27.455,0,36.959,12.32,36.959,34.143v54.734H314.576z M312.992,275.501c-2.289,2.288-6.336,3.52-14.783,5.104
		c-13.023,2.464-17.248,6.16-17.248,13.552c0,6.512,3.871,9.68,11.088,9.68c11.791,0,20.592-8.624,20.768-18.832L312.992,275.501z"
		/>
	<path fill="#FDFB48" d="M394.125,260.893h21.295v24.64c0,18.303-10.559,34.671-35.021,34.671
		c-25.344,0-35.375-16.192-35.375-34.847v-77.438h22.527v23.407h47.869v16.191H367.55v35.551c0,10.912,3.871,17.248,13.199,17.248
		c9.15,0,13.375-6.16,13.375-16.896V260.893z"/>
	<path fill="#FDFB48" d="M422.796,317.916v-21.601h22.242v21.601H422.796z"/>
	<path fill="#FDFB48" d="M468.257,310.438c-0.588,4.789-4.494,8.023-9.494,8.023c-5.629,0-9.494-3.738-9.494-11.132
		c0-7.393,3.865-10.628,9.662-10.628c5.377,0,9.031,3.066,9.367,7.939h-5.502c-0.295-2.142-1.848-3.402-3.906-3.402
		c-2.311,0-4.201,1.47-4.201,5.965s1.891,6.679,4.033,6.679s3.822-1.218,4.031-3.445H468.257z"/>
	<path fill="#FDFB48" d="M469.177,307.582c0-6.553,4.076-10.88,10.629-10.88c6.469,0,10.502,4.285,10.502,10.88
		c0,6.553-4.074,10.88-10.502,10.88C473.126,318.461,469.177,314.009,469.177,307.582z M484.804,307.582
		c0-4.201-1.68-6.259-4.998-6.259s-5,2.058-5,6.259s1.682,6.301,5,6.301S484.804,311.782,484.804,307.582z"/>
	<path fill="#FDFB48" d="M516.306,317.916v-12.518c0-2.479-1.303-4.243-3.234-4.243c-2.018,0-3.486,1.89-3.486,4.411v12.35h-5.461
		v-12.434c0-3.319-0.883-4.159-3.277-4.159c-2.184,0-3.318,1.344-3.318,4.033v12.56h-5.461v-20.667h5.125v3.024
		c1.387-2.73,3.318-3.571,6.049-3.571c2.814,0,4.158,0.882,5.756,3.277c1.133-2.269,2.982-3.277,5.586-3.277
		c4.158,0,7.057,3.024,7.057,6.889v14.325H516.306z"/>
</g>
<rect y="55.753" fill="#FDFB48" width="520.779" height="15.305"/>
<rect x="0.3" y="77.179" fill="#FDFB48" width="520.776" height="6.075"/>
<rect x="0.447" y="349.449" fill="#FDFB48" width="520.779" height="15.305"/>
<rect x="0.15" y="337.253" fill="#FDFB48" width="520.776" height="6.074"/>
<g>
	<g>
		<path fill="#FDFB48" d="M302.273,55.733l-6.295-2.406l16.316-15.457l-22.479,0.62l9.201-20.514l-20.557,9.163l0.625-22.464
			l-15.438,16.341L255.625,0l-8.024,21.016L232.145,4.675l0.619,22.464l-20.513-9.163l9.164,20.514l-22.46-0.62l16.327,15.457
			l-6.306,2.406H32.729v5.615h197.463c0-14.055,11.378-25.435,25.433-25.435c14.054,0,25.448,11.379,25.448,25.435h197.469v-5.615
			H302.273z"/>
	</g>
</g>
</svg>
