<?xml version="1.0" encoding="utf-8"?>
<!-- Generator: Adobe Illustrator 16.0.0, SVG Export Plug-In . SVG Version: 6.00 Build 0)  -->
<!DOCTYPE svg PUBLIC "-//W3C//DTD SVG 1.1//EN" "http://www.w3.org/Graphics/SVG/1.1/DTD/svg11.dtd">
<svg version="1.1" id="Layer_1" xmlns="http://www.w3.org/2000/svg" xmlns:xlink="http://www.w3.org/1999/xlink" x="0px" y="0px"
	 width="160px" height="161px" viewBox="0 0 160 161" enable-background="new 0 0 160 161" xml:space="preserve">
<path fill="#F8ED40" d="M160.319,147.653c0,7.144-5.792,12.934-12.935,12.934H12.665c-7.143,0-12.933-5.79-12.933-12.934V12.933
	C-0.268,5.791,5.522,0,12.665,0h134.72c7.143,0,12.935,5.791,12.935,12.933V147.653z"/>
<path fill="#00A0A1" d="M154.025,143.104c0,6.57-5.326,11.896-11.897,11.896H17.923c-6.571,0-11.897-5.326-11.897-11.896V18.896
	C6.025,12.326,11.352,7,17.923,7h124.205c6.571,0,11.897,5.326,11.897,11.896V143.104z"/>
<path fill="#F8ED40" d="M117.929,60.364c0.042,0.935,0.066,1.872,0.066,2.814c0,28.759-21.895,61.924-61.926,61.924
	c-12.29,0-23.73-3.603-33.361-9.779c1.702,0.204,3.439,0.305,5.189,0.305c10.196,0,19.583-3.48,27.034-9.317
	c-9.526-0.174-17.564-6.466-20.334-15.113c1.33,0.254,2.695,0.393,4.099,0.393c1.984,0,3.903-0.269,5.731-0.765
	c-9.959-2.002-17.457-10.797-17.457-21.34c0-0.094,0-0.182,0-0.276c2.932,1.631,6.287,2.608,9.857,2.723
	c-5.838-3.904-9.682-10.565-9.682-18.114c0-3.992,1.076-7.727,2.947-10.94c10.732,13.165,26.771,21.83,44.857,22.738
	c-0.372-1.595-0.568-3.253-0.568-4.961c0-12.017,9.749-21.762,21.772-21.762c6.254,0,11.911,2.645,15.883,6.874
	c4.961-0.978,9.615-2.79,13.821-5.284c-1.626,5.083-5.078,9.347-9.57,12.043c4.402-0.527,8.599-1.698,12.501-3.428
	C125.874,53.462,122.18,57.296,117.929,60.364z"/>
</svg>
