<?xml version="1.0" encoding="utf-8"?>
<!-- Generator: Adobe Illustrator 16.0.0, SVG Export Plug-In . SVG Version: 6.00 Build 0)  -->
<!DOCTYPE svg PUBLIC "-//W3C//DTD SVG 1.1//EN" "http://www.w3.org/Graphics/SVG/1.1/DTD/svg11.dtd">
<svg version="1.1" id="Layer_1" xmlns="http://www.w3.org/2000/svg" xmlns:xlink="http://www.w3.org/1999/xlink" x="0px" y="0px"
	 width="243.73px" height="153.371px" viewBox="0 0 243.73 153.371" enable-background="new 0 0 243.73 153.371"
	 xml:space="preserve">
<g>
	<polygon fill="#00A0A1" points="233.833,0 6.599,30.116 0,121.867 238.782,126.769 	"/>
	<polygon fill="#151616" points="238.667,123.838 209.09,144.968 209.09,123.838 	"/>
	<polygon fill="#00B5A1" points="243.73,153.371 226.826,132.301 209.09,144.968 	"/>
	<polygon fill="#151616" points="3.284,121.932 28.455,142.837 28.455,121.932 	"/>
	<polygon fill="#00B5A1" points="0,153.371 12.223,129.357 28.455,142.837 	"/>
</g>
<g>
	<path fill="#FDF634" d="M80.868,47.92l-2.409-10.118L76.002,47.92h-3.041l-4.397-15.552h3.462l2.55,10.071l2.152-10.071h3.415
		l2.363,10.071l2.526-10.071h3.321L84.002,47.92H80.868z"/>
	<path fill="#FDF634" d="M96.406,47.92v-7.144c0-1.733-0.585-2.272-1.965-2.272c-1.521,0-2.363,1.265-2.363,2.811v6.605h-3.041
		v-15.74h3.041v5.715c0.445-1.03,1.848-1.803,3.392-1.803c2.362,0,4,1.382,4,3.677v8.151H96.406z"/>
	<path fill="#FDF634" d="M107.894,47.92c-0.094-0.281-0.164-0.679-0.188-1.031c-0.725,0.796-1.941,1.335-3.485,1.335
		c-2.62,0-3.836-1.289-3.836-3.162c0-3.326,2.222-3.701,5.287-4.123c1.52-0.21,1.941-0.515,1.941-1.312
		c0-0.75-0.749-1.194-1.941-1.194c-1.38,0-1.942,0.679-2.082,1.709h-2.831c0.047-2.389,1.357-4.052,5.053-4.052
		c3.649,0,4.912,1.64,4.912,4.544v7.284H107.894z M107.684,42.276c-0.304,0.304-0.842,0.468-1.965,0.679
		c-1.731,0.328-2.292,0.82-2.292,1.803c0,0.867,0.515,1.288,1.474,1.288c1.567,0,2.737-1.147,2.76-2.506L107.684,42.276z"/>
	<path fill="#FDF634" d="M118.47,40.332h2.831v3.279c0,2.436-1.403,4.614-4.655,4.614c-3.369,0-4.702-2.155-4.702-4.638V33.282
		h2.994v3.115h6.362v2.155h-6.362v4.731c0,1.452,0.514,2.295,1.754,2.295c1.216,0,1.777-0.82,1.777-2.249V40.332z"/>
	<path fill="#FDF634" d="M141.679,47.92v-6.98c0-1.382-0.725-2.366-1.801-2.366c-1.123,0-1.942,1.054-1.942,2.459v6.886h-3.041
		v-6.933c0-1.85-0.491-2.319-1.825-2.319c-1.216,0-1.848,0.75-1.848,2.249v7.003h-3.041V36.396h2.854v1.687
		c0.772-1.522,1.848-1.991,3.369-1.991c1.567,0,2.315,0.492,3.205,1.827c0.631-1.265,1.661-1.827,3.111-1.827
		c2.316,0,3.93,1.687,3.93,3.841v7.987H141.679z"/>
	<path fill="#FDF634" d="M153.076,47.92c-0.093-0.281-0.163-0.679-0.187-1.031c-0.726,0.796-1.941,1.335-3.486,1.335
		c-2.619,0-3.835-1.289-3.835-3.162c0-3.326,2.222-3.701,5.287-4.123c1.521-0.21,1.941-0.515,1.941-1.312
		c0-0.75-0.748-1.194-1.941-1.194c-1.381,0-1.941,0.679-2.082,1.709h-2.831c0.047-2.389,1.357-4.052,5.053-4.052
		c3.648,0,4.912,1.64,4.912,4.544v7.284H153.076z M152.866,42.276c-0.305,0.304-0.842,0.468-1.965,0.679
		c-1.731,0.328-2.293,0.82-2.293,1.803c0,0.867,0.516,1.288,1.475,1.288c1.566,0,2.736-1.147,2.76-2.506L152.866,42.276z"/>
	<path fill="#FDF634" d="M165.103,47.92l-0.023-1.405c-0.726,1.171-1.802,1.71-3.205,1.71c-2.9,0-4.982-2.295-4.982-6.184
		c0-3.49,1.755-5.949,4.726-5.949c1.427,0,2.55,0.585,3.415,1.803v-5.715h2.994v15.74H165.103z M165.15,42.439
		c0-2.506-0.866-3.748-2.55-3.748c-1.778,0-2.62,1.195-2.62,3.561c0,2.061,1.076,3.49,2.597,3.49
		C164.027,45.742,165.15,44.384,165.15,42.439z"/>
	<path fill="#FDF634" d="M172.03,42.955c0.094,1.733,1.076,2.857,2.573,2.857c0.982,0,1.848-0.492,2.059-1.288h3.135
		c-0.702,2.365-2.597,3.701-5.053,3.701c-3.837,0-5.755-2.108-5.755-6.277c0-3.56,2.035-5.855,5.567-5.855s5.403,2.295,5.403,6.863
		H172.03z M176.826,41.034c-0.047-1.71-1.17-2.529-2.363-2.529c-1.216,0-2.222,0.937-2.339,2.529H176.826z"/>
	<path fill="#FDF634" d="M79.398,85.92V74.163L68.634,54.816h7.581l6.552,12.648l6.037-12.648h7.488l-10.389,19.44V85.92H79.398z"/>
	<path fill="#FDF634" d="M94.981,70.649c0-10.54,5.382-16.864,14.929-16.864s14.835,6.324,14.835,17.004
		s-5.288,16.208-14.835,16.208S94.981,81.142,94.981,70.649z M118.333,70.79c0-7.354-2.995-11.243-8.424-11.243
		c-5.476,0-8.518,3.888-8.518,11.243s3.136,10.634,8.518,10.634C114.589,81.423,118.333,78.144,118.333,70.79z"/>
	<path fill="#FDF634" d="M144.913,54.816h6.646v20.752c0,7.542-4.634,11.43-12.777,11.43c-7.534,0-12.261-3.561-12.261-11.056
		V54.816h6.599v20.518c0,3.841,2.06,6.277,5.569,6.277c4.165,0,6.224-1.968,6.224-6.043V54.816z"/>
	<path fill="#FDF634" d="M171.822,85.92v-8.01c0-2.998-1.123-4.169-4.867-4.169h-6.926v12.18h-6.318V54.816h15.771
		c5.756,0,9.547,3.841,9.547,8.994c0,3.326-1.638,6.136-4.633,7.214c2.761,0.89,3.79,2.436,3.79,6.09v8.807H171.822z
		 M160.029,60.203v8.292h8.143c3.463,0,4.773-1.733,4.773-4.122c0-2.436-1.311-4.169-4.539-4.169H160.029z"/>
	<path fill="#FDF634" d="M77.722,106.92l-0.025-1.511c-0.78,1.259-1.936,1.838-3.445,1.838c-3.118,0-5.356-2.467-5.356-6.646
		c0-3.751,1.886-6.395,5.08-6.395c1.534,0,2.741,0.629,3.671,1.938v-6.143h3.219v16.919H77.722z M77.773,101.029
		c0-2.693-0.931-4.028-2.741-4.028c-1.911,0-2.816,1.284-2.816,3.827c0,2.216,1.157,3.751,2.791,3.751
		C76.566,104.579,77.773,103.119,77.773,101.029z"/>
	<path fill="#FDF634" d="M89.922,106.92c-0.101-0.302-0.176-0.73-0.201-1.107c-0.78,0.855-2.087,1.435-3.747,1.435
		c-2.816,0-4.124-1.385-4.124-3.398c0-3.575,2.389-3.979,5.683-4.432c1.635-0.227,2.087-0.554,2.087-1.41
		c0-0.805-0.805-1.284-2.087-1.284c-1.483,0-2.087,0.73-2.238,1.838h-3.042c0.05-2.568,1.458-4.356,5.432-4.356
		c3.923,0,5.28,1.762,5.28,4.884v7.83H89.922z M89.696,100.853c-0.327,0.327-0.905,0.503-2.112,0.729
		c-1.861,0.353-2.465,0.882-2.465,1.939c0,0.931,0.554,1.385,1.584,1.385c1.685,0,2.942-1.234,2.967-2.694L89.696,100.853z"/>
	<path fill="#FDF634" d="M102.146,105.284c-0.452,1.108-1.811,1.763-3.344,1.763c-2.59,0-4.526-1.763-4.526-4.481v-8.032h3.269
		v7.553c0,1.536,0.704,2.316,2.087,2.316c1.484,0,2.515-0.982,2.515-2.316v-7.553h3.27v12.714c0,3.5-2.515,5.539-5.684,5.539
		c-3.621,0-5.457-1.989-5.457-5.187h3.042c0,1.46,0.855,2.367,2.565,2.367c1.182,0,2.263-1.033,2.263-2.669V105.284z"/>
	<path fill="#FDF634" d="M121.564,105.258c-0.452,1.108-1.785,1.763-3.395,1.763c-4.074,0-5.482-3.122-5.482-6.37
		c0-3.852,2.414-6.445,5.407-6.445c1.559,0,2.69,0.604,3.47,1.863v-1.536h3.27v12.513c0,3.727-2.716,5.74-6.161,5.74
		s-5.985-1.989-5.985-5.187h3.042c0,1.485,1.082,2.367,2.716,2.367c1.735,0,3.118-1.033,3.118-2.669V105.258z M121.665,101.029
		c0-2.693-0.93-3.978-2.791-3.978c-1.836,0-2.791,1.233-2.791,3.776c0,2.216,1.182,3.625,2.791,3.625
		C120.458,104.453,121.665,103.119,121.665,101.029z"/>
	<path fill="#FDF634" d="M126.145,106.92V94.533h3.068v1.485c1.081-1.662,2.339-1.812,3.671-1.812h0.427v3.348
		c-0.302-0.05-0.604-0.075-0.905-0.075c-2.012,0-2.992,1.007-2.992,2.996v6.445H126.145z"/>
	<path fill="#FDF634" d="M136.407,101.583c0.101,1.863,1.156,3.072,2.766,3.072c1.057,0,1.987-0.529,2.213-1.385h3.37
		c-0.755,2.543-2.792,3.978-5.432,3.978c-4.124,0-6.187-2.266-6.187-6.747c0-3.827,2.188-6.294,5.985-6.294
		c3.797,0,5.809,2.467,5.809,7.376H136.407z M141.562,99.518c-0.05-1.838-1.257-2.719-2.54-2.719c-1.308,0-2.389,1.007-2.515,2.719
		H141.562z"/>
	<path fill="#FDF634" d="M153.685,106.92c-0.101-0.302-0.176-0.73-0.201-1.107c-0.779,0.855-2.087,1.435-3.747,1.435
		c-2.816,0-4.124-1.385-4.124-3.398c0-3.575,2.389-3.979,5.684-4.432c1.634-0.227,2.087-0.554,2.087-1.41
		c0-0.805-0.805-1.284-2.087-1.284c-1.483,0-2.087,0.73-2.238,1.838h-3.043c0.051-2.568,1.459-4.356,5.432-4.356
		c3.923,0,5.281,1.762,5.281,4.884v7.83H153.685z M153.458,100.853c-0.327,0.327-0.905,0.503-2.112,0.729
		c-1.86,0.353-2.464,0.882-2.464,1.939c0,0.931,0.553,1.385,1.584,1.385c1.685,0,2.942-1.234,2.968-2.694L153.458,100.853z"/>
	<path fill="#FDF634" d="M165.054,98.763h3.042v3.524c0,2.619-1.508,4.96-5.004,4.96c-3.621,0-5.055-2.316-5.055-4.985V91.185h3.219
		v3.349h6.84v2.316h-6.84v5.085c0,1.562,0.554,2.468,1.887,2.468c1.308,0,1.911-0.881,1.911-2.417V98.763z"/>
	<path fill="#FDF634" d="M173.23,102.061c0-1.988,0.252-3.046,1.106-4.054c1.031-1.208,2.691-1.561,2.691-3.474
		c0-1.636-1.057-2.215-2.289-2.215c-1.785,0-2.288,1.057-2.464,2.744h-3.244c0-3.323,2.263-5.413,5.633-5.413
		c3.621,0,5.859,1.385,5.859,4.708c0,2.166-0.905,3.071-2.54,4.306c-1.483,1.107-1.685,1.913-1.685,3.398H173.23z M173.129,106.92
		v-3.298h3.395v3.298H173.129z"/>
</g>
</svg>
